<svg width="816" height="488" viewBox="0 0 816 488" fill="none" xmlns="http://www.w3.org/2000/svg">
<path d="M231.916 178.04C231.916 187.96 232.99 196.004 234.868 201.903C237.016 207.802 239.7 214.237 243.458 221.209C244.8 223.354 245.337 225.499 245.337 227.376C245.337 230.057 243.726 232.738 240.237 235.42L223.326 246.681C220.911 248.29 218.495 249.095 216.347 249.095C213.663 249.095 210.979 247.754 208.295 245.341C204.537 241.319 201.316 237.029 198.632 232.738C195.947 228.18 193.263 223.086 190.311 216.919C169.374 241.587 143.068 253.921 111.395 253.921C88.8474 253.921 70.8632 247.486 57.7106 234.615C44.5579 221.745 37.8474 204.585 37.8474 183.134C37.8474 160.343 45.9 141.842 62.2737 127.899C78.6474 113.956 100.39 106.985 128.037 106.985C137.163 106.985 146.558 107.789 156.49 109.13C166.421 110.47 176.621 112.615 187.358 115.029V95.455C187.358 75.0769 183.063 60.8659 174.742 52.5539C166.153 44.2418 151.658 40.2198 130.99 40.2198C121.595 40.2198 111.932 41.2923 102 43.7055C92.0685 46.1187 82.4053 49.0681 73.0106 52.822C68.7158 54.6989 65.4948 55.7714 63.6158 56.3077C61.7369 56.844 60.3948 57.1121 59.3211 57.1121C55.5632 57.1121 53.6843 54.4308 53.6843 48.8V35.6616C53.6843 31.3714 54.2211 28.1539 55.5632 26.2769C56.9053 24.4 59.3211 22.5231 63.079 20.6462C72.4737 15.8198 83.7474 11.7978 96.9 8.58023C110.053 5.09452 124.011 3.48573 138.774 3.48573C170.716 3.48573 194.068 10.7253 209.1 25.2044C223.863 39.6835 231.379 61.6703 231.379 91.1649V178.04H231.916ZM122.937 218.796C131.795 218.796 140.921 217.187 150.584 213.969C160.247 210.752 168.837 204.853 176.084 196.809C180.379 191.714 183.6 186.084 185.211 179.648C186.821 173.213 187.895 165.437 187.895 156.321V145.059C180.111 143.182 171.79 141.574 163.2 140.501C154.611 139.429 146.29 138.892 137.968 138.892C119.984 138.892 106.832 142.378 97.9737 149.618C89.1158 156.857 84.8211 167.046 84.8211 180.453C84.8211 193.055 88.0421 202.44 94.7527 208.875C101.195 215.578 110.59 218.796 122.937 218.796ZM338.479 247.754C333.647 247.754 330.426 246.949 328.279 245.073C326.132 243.464 324.253 239.71 322.642 234.615L259.563 27.3495C257.953 21.9868 257.147 18.5011 257.147 16.6242C257.147 12.3341 259.295 9.92089 263.59 9.92089H289.895C294.995 9.92089 298.484 10.7253 300.363 12.6022C302.511 14.211 304.121 17.9648 305.732 23.0594L350.826 200.563L392.7 23.0594C394.042 17.6967 395.653 14.211 397.8 12.6022C399.947 10.9934 403.705 9.92089 408.537 9.92089H430.011C435.111 9.92089 438.6 10.7253 440.747 12.6022C442.895 14.211 444.774 17.9648 445.847 23.0594L488.258 202.708L534.695 23.0594C536.305 17.6967 538.184 14.211 540.063 12.6022C542.211 10.9934 545.7 9.92089 550.532 9.92089H575.495C579.789 9.92089 582.205 12.0659 582.205 16.6242C582.205 17.9648 581.937 19.3055 581.668 20.9143C581.4 22.5231 580.863 24.6681 579.789 27.6176L515.1 234.884C513.49 240.246 511.611 243.732 509.463 245.341C507.316 246.949 503.826 248.022 499.263 248.022H476.179C471.079 248.022 467.589 247.218 465.442 245.341C463.295 243.464 461.416 239.978 460.342 234.615L418.737 61.6703L377.4 234.347C376.058 239.71 374.447 243.196 372.3 245.073C370.153 246.949 366.395 247.754 361.563 247.754H338.479ZM683.4 254.993C669.442 254.993 655.484 253.385 642.063 250.167C628.642 246.949 618.174 243.464 611.195 239.442C606.9 237.029 603.947 234.347 602.874 231.934C601.8 229.521 601.263 226.84 601.263 224.426V210.752C601.263 205.121 603.411 202.44 607.437 202.44C609.047 202.44 610.658 202.708 612.268 203.244C613.879 203.78 616.295 204.853 618.979 205.925C628.105 209.947 638.037 213.165 648.505 215.31C659.242 217.455 669.711 218.527 680.447 218.527C697.358 218.527 710.511 215.578 719.637 209.679C728.763 203.78 733.595 195.2 733.595 184.207C733.595 176.699 731.179 170.532 726.347 165.437C721.516 160.343 712.39 155.785 699.237 151.495L660.316 139.429C640.721 133.262 626.226 124.145 617.368 112.079C608.511 100.281 603.947 87.1429 603.947 73.2C603.947 61.9385 606.363 52.0176 611.195 43.4374C616.026 34.8572 622.468 27.3495 630.521 21.4506C638.574 15.2835 647.7 10.7253 658.437 7.5077C669.174 4.29012 680.447 2.94946 692.258 2.94946C698.163 2.94946 704.337 3.21759 710.242 4.02199C716.416 4.82639 722.053 5.89891 727.69 6.97144C733.058 8.3121 738.158 9.65276 742.99 11.2616C747.821 12.8703 751.579 14.4791 754.263 16.0879C758.021 18.233 760.705 20.378 762.316 22.7912C763.926 24.9363 764.732 27.8857 764.732 31.6396V44.2418C764.732 49.8725 762.584 52.822 758.558 52.822C756.411 52.822 752.921 51.7495 748.358 49.6044C733.058 42.633 715.879 39.1473 696.821 39.1473C681.521 39.1473 669.442 41.5605 661.121 46.655C652.8 51.7495 648.505 59.5253 648.505 70.5187C648.505 78.0264 651.19 84.4616 656.558 89.5561C661.926 94.6506 671.858 99.7451 686.084 104.303L724.2 116.369C743.526 122.536 757.484 131.117 765.805 142.11C774.126 153.103 778.153 165.706 778.153 179.648C778.153 191.178 775.737 201.635 771.174 210.752C766.342 219.868 759.9 227.912 751.579 234.347C743.258 241.051 733.326 245.877 721.784 249.363C709.705 253.117 697.09 254.993 683.4 254.993Z" fill="#12022F"/>
<path fill-rule="evenodd" clip-rule="evenodd" d="M734.132 385.305C645.821 450.462 517.516 485.051 407.195 485.051C252.584 485.051 113.274 427.938 8.05265 333.02C-0.268404 325.512 7.24738 315.323 17.179 321.222C130.989 387.182 271.374 427.134 416.589 427.134C514.563 427.134 622.2 406.756 721.247 364.927C736.011 358.224 748.626 374.58 734.132 385.305Z" fill="#12022F" fill-opacity="0.5"/>
<path fill-rule="evenodd" clip-rule="evenodd" d="M770.905 343.477C759.632 328.998 696.284 336.506 667.563 339.991C658.974 341.064 657.632 333.556 665.416 327.925C715.879 292.532 798.821 302.721 808.484 314.519C818.147 326.585 805.8 409.437 758.558 449.121C751.311 455.288 744.332 452.07 747.553 444.026C758.289 417.481 782.179 357.688 770.905 343.477Z" fill="#12022F" fill-opacity="0.5"/>
</svg>
