<svg width="2684" height="463" viewBox="0 0 2684 463" fill="none" xmlns="http://www.w3.org/2000/svg">
<g clip-path="url(#clip0_427_6575)">
<path d="M0 18.2142L81.965 41.893V369.753L0 393.432V18.2142Z" fill="#12022F"/>
<path d="M129.323 185.788L209.466 205.824V382.504L129.323 398.897V185.788Z" fill="#12022F" fill-opacity="0.5"/>
<path d="M265.931 151.181L340.61 131.145V347.897L265.931 326.04V151.181Z" fill="#12022F"/>
<path d="M389.789 0L471.755 23.6788V391.611L389.789 411.647V0Z" fill="#12022F" fill-opacity="0.427451"/>
<path d="M2496.41 248.016H2641.03C2638.6 229.716 2630.78 214.89 2617.57 203.536C2604.35 192.182 2588.31 186.505 2569.43 186.505C2550.28 186.505 2533.83 192.316 2520.07 203.937C2506.46 215.424 2498.57 230.117 2496.41 248.016ZM2496.41 278.47C2497.76 298.239 2505.58 314.268 2519.87 326.556C2534.3 338.845 2552.44 344.989 2574.28 344.989C2588.31 344.989 2601.39 342.051 2613.52 336.174C2625.66 330.296 2636.78 321.614 2646.9 310.127L2674.61 332.167C2660.72 348.195 2645.48 360.016 2628.9 367.63C2612.44 375.244 2593.84 379.051 2573.07 379.051C2555.94 379.051 2539.96 375.978 2525.13 369.834C2510.3 363.69 2497.56 354.941 2486.9 343.587C2477.6 333.569 2470.45 322.015 2465.46 308.925C2460.47 295.701 2457.98 281.876 2457.98 267.45C2457.98 233.256 2468.29 205.606 2488.93 184.502C2509.56 163.397 2536.53 152.845 2569.83 152.845C2603.81 152.845 2631.25 164.132 2652.16 186.706C2673.19 209.146 2683.71 238.799 2683.71 275.665V278.47H2496.41ZM2411.6 208.344C2404.9 200.864 2397.24 195.388 2388.63 191.915C2380.15 188.309 2370.44 186.505 2359.5 186.505C2338.3 186.505 2320.86 193.985 2307.19 208.946C2293.65 223.772 2286.88 242.806 2286.88 266.048C2286.88 289.29 2293.58 308.257 2306.98 322.95C2320.52 337.643 2338.03 344.989 2359.5 344.989C2371.12 344.989 2381.38 342.986 2390.27 338.979C2399.29 334.972 2406.95 329.028 2413.24 321.147L2438.47 349.397C2426.99 359.682 2414.88 367.229 2402.16 372.038C2389.58 376.713 2375.36 379.051 2359.5 379.051C2343.22 379.051 2328.18 376.379 2314.37 371.036C2300.56 365.693 2288.59 357.946 2278.47 347.794C2267.67 337.109 2259.46 324.887 2253.86 311.129C2248.39 297.237 2245.65 282.21 2245.65 266.048C2245.65 249.886 2248.39 234.859 2253.86 220.967C2259.46 207.076 2267.67 194.787 2278.47 184.101C2288.73 173.816 2300.69 166.069 2314.37 160.859C2328.04 155.516 2343.09 152.845 2359.5 152.845C2375.09 152.845 2389.17 155.116 2401.75 159.657C2414.47 164.199 2426.03 171.078 2436.42 180.294L2411.6 208.344ZM2038.14 373.641V158.255H2076.53V182.899C2086.2 173.148 2096.35 165.935 2106.97 161.26C2117.72 156.451 2129.23 154.047 2141.48 154.047C2166.67 154.047 2186.55 162.462 2201.12 179.292C2215.68 196.123 2222.97 219.297 2222.97 248.817V373.641H2184.16V252.624C2184.16 230.05 2180.15 213.554 2172.11 203.135C2164.22 192.583 2151.76 187.307 2134.74 187.307C2115.41 187.307 2100.84 192.917 2091.04 204.137C2081.37 215.223 2076.53 231.92 2076.53 254.227V373.641H2038.14ZM1890.42 343.587C1912.07 343.587 1929.87 336.307 1943.81 321.748C1957.76 307.188 1964.73 288.488 1964.73 265.647C1964.73 242.94 1957.76 224.306 1943.81 209.747C1929.87 195.054 1912.07 187.707 1890.42 187.707C1868.78 187.707 1850.98 194.987 1837.04 209.547C1823.09 224.106 1816.12 242.806 1816.12 265.647C1816.12 288.622 1823.09 307.389 1837.04 321.948C1850.98 336.374 1868.78 343.587 1890.42 343.587ZM2000.59 373.641H1962.74V338.378C1953.71 351.067 1942.68 360.617 1929.67 367.029C1916.79 373.307 1901.98 376.446 1885.25 376.446C1870.37 376.446 1856.16 373.641 1842.61 368.031C1829.2 362.287 1817.25 354.006 1806.75 343.186C1796.79 332.768 1789.29 321.013 1784.24 307.923C1779.2 294.833 1776.67 280.607 1776.67 265.246C1776.67 231.987 1786.57 205.139 1806.36 184.702C1826.28 164.265 1852.57 154.047 1885.25 154.047C1901.71 154.047 1916.79 157.453 1930.47 164.265C1944.15 170.944 1955.83 180.695 1965.53 193.518V158.255H2000.59V373.641ZM1552.19 97.1451V336.775H1581.98C1625.41 336.775 1658.11 326.69 1680.09 306.521C1702.2 286.351 1713.25 256.497 1713.25 216.96C1713.25 177.289 1702.2 147.435 1680.09 127.399C1658.11 107.23 1625.41 97.1451 1581.98 97.1451H1552.19ZM1575.82 60.0786C1634.08 60.0786 1678.37 73.4359 1708.68 100.15C1739.14 126.731 1754.36 165.668 1754.36 216.96C1754.36 268.118 1739.14 307.055 1708.68 333.769C1678.37 360.35 1634.08 373.641 1575.82 373.641H1511.48V60.0786H1575.82ZM1269.58 248.016H1411.87C1409.48 229.716 1401.79 214.89 1388.79 203.536C1375.78 192.182 1360 186.505 1341.42 186.505C1322.58 186.505 1306.4 192.316 1292.87 203.937C1279.47 215.424 1271.71 230.117 1269.58 248.016ZM1269.58 278.47C1270.91 298.239 1278.6 314.268 1292.67 326.556C1306.86 338.845 1324.71 344.989 1346.2 344.989C1360 344.989 1372.87 342.051 1384.81 336.174C1396.75 330.296 1407.69 321.614 1417.64 310.127L1444.91 332.167C1431.24 348.195 1416.25 360.016 1399.93 367.63C1383.74 375.244 1365.44 379.051 1345.01 379.051C1328.16 379.051 1312.43 375.978 1297.84 369.834C1283.25 363.69 1270.71 354.941 1260.23 343.587C1251.08 333.569 1244.04 322.015 1239.13 308.925C1234.23 295.701 1231.77 281.876 1231.77 267.45C1231.77 233.256 1241.92 205.606 1262.22 184.502C1282.52 163.397 1309.05 152.845 1341.82 152.845C1375.25 152.845 1402.25 164.132 1422.82 186.706C1443.51 209.146 1453.86 238.799 1453.86 275.665V278.47H1269.58ZM1125.83 105.762V158.255H1093.63H1050.58L992.702 294.5C991.741 296.771 989.887 301.844 987.14 309.725C984.531 317.472 981.306 327.024 977.461 338.378C974.028 326.356 971.074 316.537 968.603 308.924C966.268 301.31 964.619 296.504 963.658 294.5L906.601 158.255H862.73L955.214 373.64L916.284 463.001H956.038L1079.78 188.944L1125.83 190.311V328.961C1125.83 346.993 1130.48 359.881 1139.77 367.629C1149.05 375.242 1164.66 379.05 1186.59 379.05H1211.02V342.786H1188.19C1181.64 342.786 1176.84 341.316 1173.8 338.378C1170.9 335.439 1169.46 330.764 1169.46 324.352V190.311H1211.02V158.255H1169.46V105.762H1125.83ZM626.681 373.641V60.0786H687.43C710.877 60.0786 729.376 61.1472 742.927 63.2844C756.63 65.2879 767.973 68.6273 776.956 73.3023C792.334 81.3167 803.981 91.4682 811.899 103.757C819.968 115.912 824.003 129.67 824.003 145.031C824.003 157.72 820.273 169.341 812.812 179.893C805.504 190.446 795.075 199.061 781.524 205.74C803.753 212.151 820.577 222.169 831.996 235.794C843.568 249.285 849.354 265.981 849.354 285.883C849.354 310.594 838.239 331.432 816.01 348.396C793.933 365.226 766.374 373.641 733.335 373.641H626.681ZM673.042 195.121H711.41C732.726 195.121 749.17 190.78 760.741 182.097C772.465 173.415 778.326 161.193 778.326 145.432C778.326 128.869 772.465 116.38 760.741 107.964C749.017 99.5494 731.508 95.3418 708.213 95.3418H673.042V195.121ZM673.042 336.775H720.317C746.962 336.775 767.136 332.3 780.839 323.351C794.694 314.401 801.621 301.178 801.621 283.68C801.621 266.449 794.922 253.425 781.524 244.609C768.125 235.66 748.332 231.185 722.144 231.185H673.042V336.775Z" fill="#12022F"/>
</g>
<defs>
<clipPath id="clip0_427_6575">
<rect width="2683.71" height="463" fill="white"/>
</clipPath>
</defs>
</svg>
