<svg width="1421" height="457" viewBox="0 0 1421 457" fill="none" xmlns="http://www.w3.org/2000/svg">
<mask id="mask0_427_6592" style="mask-type:luminance" maskUnits="userSpaceOnUse" x="26" y="22" width="413" height="413">
<path d="M406.117 187.662H269.746V213.217C269.66 227.672 275.321 241.57 285.482 251.852C295.644 262.134 309.473 267.959 323.929 268.044H357.279V333.901C357.279 338.094 355.614 342.116 352.649 345.081C349.684 348.045 345.663 349.711 341.47 349.711H134.758C128.469 349.711 122.437 347.213 117.989 342.765C113.542 338.318 111.044 332.286 111.044 325.997V187.563V131.043C111.04 127.929 111.651 124.845 112.839 121.966C114.028 119.088 115.772 116.472 117.972 114.267C120.172 112.063 122.784 110.313 125.66 109.119C128.536 107.924 131.619 107.307 134.733 107.304H356.699V22.3517H128.582C112.646 22.3393 96.9273 26.0574 82.685 33.2086C62.7463 42.9207 46.6354 59.0315 36.9234 78.9702C29.7722 93.2125 26.0541 108.931 26.0665 124.868V332.11C26.0408 348.068 29.7594 363.81 36.9234 378.07C46.6489 397.984 62.758 414.071 82.685 423.77C96.9273 430.921 112.646 434.639 128.582 434.626H300.698C316.06 434.6 330.785 428.486 341.648 417.624C352.51 406.761 358.624 392.036 358.65 376.674V353.626C358.631 353.127 358.71 352.629 358.883 352.16C359.056 351.692 359.319 351.262 359.658 350.895C359.997 350.528 360.405 350.231 360.859 350.022C361.313 349.813 361.803 349.695 362.302 349.676L362.356 349.674H362.652C408.747 348.352 438.391 325.959 438.391 287.102V187.662H406.117Z" fill="white"/>
</mask>
<g mask="url(#mask0_427_6592)">
<rect x="21.0398" y="20.1988" width="1384.51" height="503.618" fill="#12022F"/>
</g>
<mask id="mask1_427_6592" style="mask-type:luminance" maskUnits="userSpaceOnUse" x="500" y="22" width="413" height="413">
<path d="M500.58 182.375C500.58 235.066 544.712 267.994 604.64 267.994H806.164C809.339 267.758 812.527 268.21 815.512 269.318C818.496 270.426 821.206 272.165 823.457 274.416C825.708 276.667 827.447 279.377 828.555 282.362C829.664 285.346 830.115 288.534 829.879 291.709V325.959C830.115 329.134 829.664 332.322 828.555 335.306C827.447 338.29 825.708 341.001 823.457 343.252C821.206 345.503 818.496 347.242 815.512 348.35C812.527 349.458 809.339 349.91 806.164 349.674H522.306V434.626H808.128C821.98 434.979 835.759 432.512 848.628 427.374C861.497 422.235 873.186 414.534 882.985 404.737C892.785 394.94 900.489 383.252 905.63 370.385C910.771 357.517 913.242 343.739 912.892 329.887V292.376C913.245 278.528 910.778 264.754 905.641 251.89C900.503 239.025 892.803 227.341 883.008 217.546C873.213 207.751 861.528 200.05 848.664 194.913C835.8 189.776 822.025 187.308 808.177 187.662H607.271C604.096 187.898 600.908 187.446 597.924 186.338C594.94 185.23 592.229 183.491 589.978 181.24C587.727 178.989 585.988 176.279 584.88 173.294C583.772 170.31 583.32 167.122 583.556 163.947V123.101C583.362 120.976 583.637 118.835 584.363 116.828C585.089 114.822 586.247 112.999 587.756 111.491C589.265 109.982 591.087 108.824 593.093 108.098C595.1 107.372 597.241 107.097 599.366 107.291H878.605V22.3389H639.533C624.252 22.2535 609.563 28.2402 598.696 38.9826C587.828 49.7251 581.672 64.3438 581.58 79.6243V103.339C581.62 104.347 581.258 105.33 580.573 106.07C579.888 106.811 578.937 107.25 577.929 107.29L577.875 107.291H577.579C536.794 108.613 500.58 131.66 500.58 182.375Z" fill="white"/>
</mask>
<g mask="url(#mask1_427_6592)">
<rect x="-77.5479" y="-76.7227" width="1471.47" height="600.608" fill="#12022F"/>
</g>
<mask id="mask2_427_6592" style="mask-type:luminance" maskUnits="userSpaceOnUse" x="982" y="22" width="413" height="413">
<path d="M982.061 314.102V434.626H1067.01V245.651C1067.01 237.092 1073.6 235.77 1078.2 240.377L1278.42 434.663H1394.34L1182.21 228.495L1394.27 22.3517H1278.36L1078.15 216.638C1073.55 221.245 1066.96 219.936 1066.96 211.364V22.3517H982.061V143.53C982.061 186.995 1010.38 213.34 1061.11 227.174C1063.08 227.828 1063.08 229.804 1061.11 230.471C1010.38 244.293 982.061 270.638 982.061 314.102Z" fill="white"/>
</mask>
<g mask="url(#mask2_427_6592)">
<rect x="20.918" y="21.9845" width="1376.53" height="466.845" fill="#12022F"/>
</g>
</svg>
