<svg width="1315" height="420" viewBox="0 0 1315 420" fill="none" xmlns="http://www.w3.org/2000/svg">
<path d="M5.2598 5.23672V15.4731C29.1837 18.0314 43.4329 24.6821 78.043 58.4434L91.275 71.2335V162.837H102.981V80.9529L430.76 391.49H440.936V114.219C440.936 51.8066 461.806 31.3409 503.54 15.4842V5.24774H366.628V15.4842C408.361 31.3409 429.229 51.8066 429.229 114.219V297.359L139.627 19.0633C126.396 6.78268 122.836 5.24567 114.182 5.24567L5.2598 5.23672ZM91.1732 286.906C89.6394 343.906 68.8148 363.437 28.6734 378.688V388.92H165.583V378.688C125.443 363.437 104.62 343.906 103.086 286.906H91.1732Z" fill="#12022F" fill-opacity="0.6"/>
<path d="M841.025 139.237L836.309 139.246L815.807 152.674L815.81 155.481L825.117 155.46L825.243 226.756C825.255 233.771 824.114 235.56 816.85 236.59L816.853 240.543L849.616 240.486L849.613 236.533C842.347 235.527 841.196 233.74 841.181 226.725L841.129 197.14C847.237 191.516 851.949 188.702 857.302 188.696C863.551 188.685 865.342 191.866 865.354 197.604L865.402 226.686C865.414 233.701 864.268 235.485 857.005 236.52L857.017 240.473L889.777 240.416L889.768 236.464C882.501 235.458 881.352 233.671 881.34 226.656L881.287 196.175C881.266 185.972 876.922 178.709 864.043 178.732C856.266 178.744 848.623 183.352 841.115 189.743L841.025 139.237ZM635.525 145.214L604.672 145.267L604.681 149.219C611.951 151.249 616.164 155.066 616.191 169.985L616.27 214.884L551.132 149.316C547.557 145.752 546.153 145.371 543.858 145.377L519.763 145.416L519.772 149.373C524.998 149.872 528.061 151.905 534.062 157.633C535.978 159.416 537.769 161.581 537.778 165.154L537.865 216.298C537.892 231.22 533.689 235.052 526.425 237.103L526.434 241.06L557.288 241.008L557.279 237.055C550.009 235.025 545.799 231.207 545.769 216.285L545.686 168.076L618.997 241.532L624.221 241.524L624.094 169.977C624.067 155.055 628.268 151.222 635.534 149.168L635.525 145.214ZM1101.17 167.725L1098.88 167.733L1075.95 182.824L1075.96 186.903L1085.27 186.89L1085.34 228.592C1085.35 236.881 1090.08 241.334 1099.39 241.316C1106.65 241.304 1113.79 238.868 1119.9 234.268L1117.98 230.192C1114.54 231.727 1111.48 232.495 1108.8 232.501C1102.81 232.51 1101.28 229.453 1101.27 225.247L1101.2 186.859L1117.4 186.828L1117.38 179.561L1101.19 179.587L1101.17 167.725ZM794.312 168.271L792.021 168.274L769.098 183.36L769.107 187.444L778.413 187.426L778.488 229.134C778.5 237.426 783.222 241.878 792.532 241.863C799.799 241.848 806.935 239.417 813.047 234.814L811.124 230.734C807.686 232.272 804.629 233.042 801.953 233.048C795.961 233.06 794.421 229.998 794.412 225.789L794.347 187.401L810.542 187.37L810.53 180.103L794.339 180.129L794.312 168.271ZM105.96 174.953C105.139 174.959 104.73 174.96 103.91 174.966C102.844 174.975 102.395 175.308 102.043 176.382C100.294 181.565 99.4004 184.154 97.5713 189.339C95.7032 184.18 94.7921 181.603 93.0076 176.448C92.6465 175.376 92.1976 175.056 91.1323 175.062C90.1983 175.071 89.7321 175.073 88.798 175.079C88.0669 175.085 87.6085 175.74 87.88 176.483C90.4345 183.743 91.7561 187.374 94.4807 194.634C94.8865 195.703 95.3494 196.029 96.4565 196.02C97.2264 196.014 97.61 196.01 98.3799 196.007C99.487 195.998 99.9514 195.668 100.351 194.59C103.049 187.292 104.353 183.646 106.886 176.348C107.149 175.601 106.691 174.947 105.96 174.953ZM113.151 175.132C112.536 175.102 112.153 175.765 112.482 176.348C114.538 179.942 115.584 181.738 117.705 185.329C115.288 189.057 114.062 190.923 111.564 194.651C111.203 195.198 111.561 195.9 112.202 195.933C113.273 195.983 113.81 196.006 114.882 196.059C116.075 196.116 116.492 195.899 117.115 194.888C118.604 192.517 119.34 191.333 120.796 188.962C122.219 191.473 122.935 192.731 124.385 195.242C124.994 196.31 125.404 196.568 126.601 196.628C127.768 196.681 128.35 196.711 129.517 196.768C130.158 196.797 130.536 196.13 130.181 195.548C127.728 191.586 126.52 189.609 124.145 185.648C126.323 182.269 127.397 180.579 129.512 177.2C129.844 176.651 129.473 175.947 128.852 175.914C127.805 175.864 127.277 175.837 126.23 175.783C125.078 175.726 124.686 175.944 124.092 176.959C122.898 178.968 122.293 179.975 121.076 181.984C119.87 179.852 119.271 178.789 118.086 176.658C117.504 175.592 117.116 175.328 115.961 175.271C114.836 175.215 114.276 175.189 113.151 175.132ZM75.1714 175.77C74.3597 175.812 73.9548 175.839 73.1431 175.884C72.215 175.935 71.7342 176.463 71.7312 177.445C71.7192 184.582 71.7177 188.154 71.7267 195.294C71.7267 196.276 72.2228 196.757 73.1867 196.707C77.3406 196.486 79.4176 196.38 83.5686 196.156C84.5294 196.108 85.0145 195.577 84.9936 194.595C84.9757 193.941 84.9691 193.613 84.9543 192.959C84.9304 191.977 84.4287 191.495 83.4768 191.543C80.7701 191.689 79.4154 191.762 76.7057 191.905C76.652 186.016 76.6309 183.072 76.5921 177.183C76.5831 176.201 76.1024 175.72 75.1714 175.77ZM1260.56 177.139L1254.7 177.148L1236.24 189.295L1236.24 192.102L1245.03 192.089L1245.09 226.011C1245.11 233.029 1243.96 234.816 1236.7 235.845L1236.7 239.798L1269.47 239.746L1269.46 235.788C1262.19 234.782 1261.04 232.997 1261.03 225.985L1260.98 196.522C1267.34 190.77 1272.57 187.956 1277.16 187.947C1283.4 187.938 1285.19 191.122 1285.2 196.863L1285.25 225.941C1285.26 232.956 1284.12 234.739 1276.86 235.775L1276.86 239.728L1309.63 239.671L1309.62 235.718C1302.35 234.712 1301.21 232.928 1301.19 225.91L1301.14 195.43C1301.12 185.227 1296.77 177.968 1283.89 177.992C1275.99 178.006 1268.22 182.866 1260.58 189.382L1260.56 177.139ZM1208.55 177.231L1202.94 177.239L1184.47 189.391L1184.48 192.194L1193.28 192.176L1193.34 226.105C1193.35 233.117 1192.2 234.907 1184.94 235.943L1184.95 239.896L1218.73 239.831L1218.72 235.878C1210.43 234.618 1209.28 232.839 1209.27 224.928L1209.22 198.657C1211.77 194.06 1214.18 190.741 1216.73 188.443C1216.74 193.416 1220.18 196.595 1224.52 196.589C1228.85 196.58 1233.05 193.13 1233.04 186.497C1233.03 180.885 1229.84 177.447 1224.23 177.459C1217.98 177.47 1213.15 182.707 1208.57 190.113L1208.55 177.231ZM740.399 178.057L734.791 178.066L716.326 190.218L716.329 193.02L725.129 193.007L725.186 226.936C725.198 233.951 724.052 235.734 716.788 236.77L716.797 240.723L750.584 240.666L750.575 236.708C742.285 235.452 741.136 233.667 741.124 225.759L741.076 199.484C743.618 194.887 746.033 191.571 748.581 189.269C748.59 194.242 752.034 197.421 756.367 197.416C760.703 197.407 764.907 193.956 764.895 187.323C764.886 181.714 761.693 178.276 756.083 178.285C749.837 178.297 744.999 183.534 740.425 190.94L740.399 178.057ZM1154.75 178.219C1137.03 178.249 1124.05 192.555 1124.08 210.285C1124.11 227.882 1135.35 241.258 1155.11 241.222C1167.23 241.201 1174.49 235.834 1178.81 228.428L1175.36 225.756C1171.92 229.717 1166.7 232.402 1160.71 232.411C1148.98 232.432 1142.33 223.52 1139.89 211.917L1178.12 199.096C1177.33 185.577 1167.37 178.195 1154.75 178.219ZM1046.51 178.411C1033 178.435 1024.21 186.227 1024.23 197.962C1024.26 209.824 1034.08 213.248 1043.26 216.296C1052.32 219.338 1058.57 221.117 1058.58 227.875C1058.59 232.084 1055.41 235.275 1049.29 235.287C1040.75 235.302 1034.23 229.702 1026.44 219.768L1023 221.049L1028.01 240.936L1030.17 240.932L1033.87 238.247C1038.08 240.283 1042.79 241.422 1048.02 241.413C1061.02 241.389 1071.72 233.719 1071.7 221.346C1071.68 209.484 1061.85 205.804 1052.67 202.885C1043.61 199.968 1037.36 198.066 1037.35 191.433C1037.35 187.863 1040.02 184.542 1045.25 184.533C1051.75 184.524 1057.49 188.464 1064.39 196.234L1067.7 194.695L1062.83 178.892H1060.79L1058.5 180.812C1054.93 179.289 1050.85 178.402 1046.51 178.411ZM988.122 178.512C971.93 178.542 960.087 187.235 960.102 195.399C960.108 199.351 962.79 202.662 967.38 202.654C972.605 202.645 975.152 199.198 975.913 195.753C976.671 191.798 975.385 188.866 973.469 187.209C976.656 185.675 979.841 184.904 983.156 184.901C988.638 184.892 991.322 186.797 991.331 191.77L991.352 204.525C968.541 210.179 958.096 215.171 958.117 227.285C958.135 236.595 964.134 241.556 973.57 241.544C979.559 241.532 986.438 238.967 992.296 234.364C993.195 238.573 996.134 240.993 1001.62 240.984C1007.1 240.973 1012.96 238.415 1016.78 235.729L1015.62 232.156C1009.38 233.317 1007.08 232.43 1007.08 228.221L1007.01 194.167C1007 183.967 1002.53 178.488 988.122 178.512ZM927.054 178.621C909.331 178.654 896.356 192.958 896.386 210.687C896.416 228.287 907.661 241.663 927.421 241.627C939.531 241.603 946.788 236.232 951.109 228.829L947.665 226.157C944.23 230.115 939.009 232.805 933.017 232.817C921.286 232.837 914.637 223.917 912.196 212.317L950.423 199.497C949.635 185.977 939.674 178.6 927.054 178.621ZM675.515 179.067C654.859 179.103 642.516 194.048 642.546 211.396C642.579 228.103 653.824 242.109 674.351 242.07C695.004 242.038 707.341 227.094 707.311 209.748C707.281 193.043 696.039 179.031 675.515 179.067ZM1151.58 184.857C1157.44 184.848 1161.15 189.05 1162.69 197.337L1138.99 205.54C1138.86 204.137 1138.86 202.735 1138.85 201.329C1138.84 190.997 1143.16 184.872 1151.58 184.857ZM923.879 185.259C929.743 185.25 933.45 189.449 934.995 197.739L911.294 205.942C911.166 204.539 911.163 203.135 911.163 201.735C911.145 191.404 915.467 185.274 923.879 185.259ZM673.871 185.316C687.383 185.292 691.366 201.872 691.395 217.047C691.416 228.522 686.456 235.798 676 235.819C662.484 235.84 658.502 219.27 658.475 204.091C658.457 192.61 663.414 185.334 673.871 185.316ZM991.353 210.262L991.388 228.758C987.825 231.57 984.635 232.85 981.448 232.856C976.477 232.865 973.539 230.191 973.527 223.94C973.515 217.435 976.445 214.369 991.353 210.262ZM102.736 212.571C101.772 212.565 101.275 213.067 101.272 214.049C101.242 221.195 101.226 224.769 101.193 231.916C101.187 232.898 101.703 233.411 102.697 233.42C103.577 233.426 104.016 233.427 104.9 233.433C105.896 233.442 106.406 232.937 106.403 231.955C106.377 224.806 106.363 221.233 106.333 214.084C106.331 213.102 105.83 212.594 104.869 212.588L102.736 212.571ZM114.936 212.741C113.975 212.694 113.462 213.179 113.441 214.158C113.426 214.815 113.42 215.141 113.402 215.798C113.381 216.777 113.872 217.307 114.844 217.354C116.704 217.438 117.632 217.482 119.491 217.569C119.413 223.461 119.374 226.406 119.281 232.296C119.266 233.278 119.771 233.805 120.768 233.853C121.648 233.894 122.092 233.91 122.975 233.949C123.975 233.997 124.49 233.514 124.496 232.532C124.541 226.643 124.558 223.699 124.588 217.809C126.45 217.893 127.383 217.936 129.248 218.019C130.221 218.067 130.72 217.589 130.717 216.607C130.711 215.95 130.711 215.625 130.708 214.972C130.702 213.989 130.197 213.455 129.23 213.41C123.507 213.142 120.648 213.01 114.936 212.741ZM85.6225 212.794C82.9099 212.883 81.5539 212.926 78.8383 213.012C77.8744 213.045 77.3755 213.572 77.3695 214.552C77.3367 221.701 77.3205 225.273 77.2996 232.423C77.2966 233.405 77.8124 233.894 78.8121 233.861C79.6834 233.837 80.1132 233.823 80.9846 233.796C81.9843 233.76 82.4957 233.239 82.4927 232.257C82.4778 229.71 82.4697 228.431 82.4577 225.881L84.7876 225.807C86.1096 228.377 86.7799 229.66 88.1317 232.231C88.6897 233.281 89.1175 233.537 90.326 233.499L92.9838 233.411C93.7089 233.387 94.1168 232.692 93.7706 232.077C92.0846 229.077 91.252 227.58 89.6048 224.583C91.7951 223.499 93.0258 221.522 92.9751 219.047C92.8915 215.175 90.0361 212.648 85.6225 212.794ZM67.2369 213.703C62.5517 214.1 60.2086 214.295 55.5086 214.692C54.5387 214.772 54.0426 215.317 54.0486 216.296C54.1053 223.422 54.1412 226.981 54.2278 234.106C54.2397 235.085 54.7668 235.547 55.7665 235.466C60.6247 235.069 63.0448 234.872 67.888 234.478C68.8848 234.394 69.3839 233.848 69.3481 232.869C69.3272 232.278 69.3194 231.98 69.2956 231.386C69.2628 230.407 68.7332 229.939 67.7394 230.022C64.4091 230.297 62.744 230.434 59.4077 230.709C59.3749 229.106 59.3589 228.305 59.329 226.699C61.6149 226.514 62.7581 226.418 65.038 226.227C66.0257 226.149 66.5191 225.601 66.4893 224.622C66.4743 224.099 66.4648 223.838 66.4499 223.319C66.4231 222.34 65.9031 221.875 64.9244 221.959C62.6594 222.144 61.5257 222.24 59.2548 222.431C59.2279 220.992 59.2131 220.273 59.1892 218.837C62.4658 218.562 64.1017 218.425 67.3723 218.15C68.3452 218.07 68.8228 217.52 68.793 216.541C68.7751 215.95 68.7673 215.653 68.7493 215.059C68.7194 214.08 68.2007 213.623 67.2369 213.703ZM142.939 214.337C141.82 214.236 141.346 214.514 140.91 215.544C137.947 222.538 136.418 226.036 133.26 233.03C132.929 233.747 133.382 234.441 134.17 234.513C135.056 234.593 135.498 234.633 136.382 234.714C137.533 234.818 138.031 234.539 138.458 233.503C138.879 232.494 139.092 231.989 139.507 230.98C142.667 231.266 144.249 231.413 147.415 231.697C147.782 232.78 147.968 233.316 148.341 234.399C148.717 235.504 149.199 235.873 150.357 235.978C151.365 236.067 151.867 236.111 152.879 236.201C153.673 236.275 154.162 235.668 153.867 234.898C151.056 227.384 149.684 223.627 147.004 216.117C146.604 215.01 146.143 214.637 145.024 214.53C144.191 214.455 143.771 214.415 142.939 214.337ZM45.372 215.723C44.5126 215.84 44.0794 215.904 43.217 216.021C42.1009 216.176 41.6412 216.562 41.298 217.678C39.6149 223.06 38.7654 225.751 37.0316 231.133C34.8889 226.27 33.8388 223.839 31.7947 218.977C31.3829 217.968 30.9045 217.709 29.7795 217.862C28.7948 217.999 28.2989 218.064 27.3141 218.198C26.5442 218.303 26.077 219.02 26.3874 219.716C29.3178 226.545 30.8367 229.961 33.9761 236.791C34.4416 237.797 34.9441 238.057 36.1049 237.901L38.12 237.63C39.2779 237.478 39.7519 237.088 40.1309 235.969C42.6853 228.375 43.9335 224.575 46.3776 216.978C46.6342 216.202 46.136 215.619 45.372 215.723ZM167.671 216.952C163.729 216.549 160.753 218.951 160.568 222.414C160.451 224.635 161.542 226.593 163.684 228.151C164.484 228.754 166.849 230.413 167.658 231.019C168.502 231.64 168.932 232.186 168.899 232.899C168.854 233.813 167.953 234.351 166.661 234.22C165.518 234.107 164.396 233.541 163.042 232.335C162.296 231.667 161.638 231.601 160.97 232.279C160.758 232.473 160.128 233.103 159.916 233.297C159.215 234.005 159.204 234.721 159.947 235.479C161.463 237.029 163.634 238.261 166.468 238.545C170.566 238.957 173.73 236.865 173.9 233.044C173.992 230.945 172.903 228.961 170.722 227.372C169.913 226.769 167.548 225.106 166.748 224.5C165.82 223.84 165.486 223.36 165.524 222.593C165.566 221.763 166.279 221.155 167.47 221.277C168.213 221.349 169.032 221.727 169.9 222.414C170.679 223.029 171.366 223.064 171.998 222.326C172.177 222.123 172.729 221.491 172.908 221.294C173.504 220.638 173.537 219.837 172.934 219.27C171.498 217.933 169.569 217.143 167.671 216.952ZM85.5446 216.996C86.8397 216.954 87.791 217.878 87.8089 219.305C87.8298 220.675 86.8909 221.659 85.5839 221.701C84.3276 221.743 83.7002 221.763 82.441 221.801C82.435 219.918 82.4294 218.977 82.4234 217.096C83.6708 217.058 84.2972 217.038 85.5446 216.996ZM143.7 220.595C144.619 223.365 145.078 224.754 146.012 227.53C144.042 227.348 143.061 227.254 141.094 227.075C142.147 224.481 142.67 223.186 143.7 220.595ZM102.584 250.075C101.587 250.057 101.063 250.554 101.045 251.536C101.036 252.193 101.031 252.519 101.019 253.176C101.001 254.158 101.508 254.674 102.514 254.689L107.322 254.78C107.278 260.676 107.251 263.625 107.2 269.521C107.194 270.503 107.719 271.02 108.752 271.038C109.662 271.056 110.119 271.06 111.029 271.077C112.059 271.095 112.59 270.601 112.59 269.613C112.593 263.717 112.593 260.771 112.59 254.872L117.394 254.96C118.4 254.981 118.914 254.481 118.902 253.499C118.896 252.842 118.895 252.516 118.889 251.859C118.88 250.874 118.356 250.36 117.359 250.342C111.444 250.238 108.493 250.183 102.584 250.075ZM88.2416 250.255C85.4336 250.323 84.0337 250.361 81.2256 250.43C80.2289 250.456 79.7104 250.974 79.7044 251.956C79.6775 259.105 79.6597 262.68 79.6388 269.827C79.6358 270.812 80.1669 271.305 81.1994 271.278C82.0976 271.258 82.5466 271.245 83.4418 271.222C84.4773 271.198 85.004 270.681 84.998 269.695L84.9674 263.324C85.9313 263.301 86.4107 263.287 87.3716 263.263C88.7384 265.839 89.427 267.128 90.8207 269.704C91.3937 270.764 91.8347 271.021 93.085 270.994C94.1832 270.964 94.735 270.951 95.8302 270.924C96.5822 270.906 97.0014 270.208 96.6433 269.59C94.9095 266.581 94.0486 265.083 92.3506 262.074C94.6126 261.002 95.8853 259.036 95.8346 256.564C95.754 252.692 92.8044 250.141 88.2416 250.255ZM125.027 250.618C124.239 250.564 123.734 251.187 124.017 251.951C126.643 259.396 127.993 263.117 130.753 270.561C131.165 271.663 131.655 272.02 132.843 272.092C133.67 272.146 134.084 272.174 134.911 272.227C136.101 272.299 136.609 272.004 137.066 270.959C140.142 263.885 141.637 260.348 144.532 253.267C144.836 252.545 144.348 251.862 143.557 251.811C142.671 251.755 142.227 251.724 141.341 251.667C140.186 251.592 139.697 251.889 139.291 252.931C137.297 257.967 136.281 260.484 134.198 265.52C132.3 260.233 131.371 257.592 129.539 252.305C129.172 251.21 128.693 250.852 127.541 250.775L125.027 250.618ZM68.6955 251.059C67.8122 251.113 67.3699 251.141 66.4836 251.195C65.4839 251.257 64.9707 251.796 64.9886 252.778C65.0961 259.915 65.1574 263.487 65.2946 270.627C65.3125 271.606 65.8576 272.08 66.8902 272.017C67.8033 271.961 68.2602 271.939 69.1763 271.882C70.2059 271.822 70.723 271.281 70.6932 270.299C70.4992 263.159 70.4144 259.59 70.2473 252.45C70.2234 251.468 69.6982 250.994 68.6955 251.059ZM56.1543 251.894C55.2681 251.984 54.8244 252.029 53.9381 252.122C52.7832 252.238 52.31 252.615 51.9579 253.722C50.2092 259.059 49.3234 261.732 47.5211 267.072C45.3307 262.132 44.2567 259.661 42.1619 254.724C41.7381 253.697 41.2433 253.421 40.0855 253.543C39.0739 253.647 38.5691 253.697 37.5545 253.801C36.7607 253.885 36.2809 254.585 36.5972 255.292C39.6052 262.238 41.1588 265.704 44.3608 272.647C44.8352 273.671 45.3527 273.943 46.5464 273.824C47.376 273.743 47.7888 273.702 48.6184 273.618C49.8091 273.502 50.2965 273.128 50.6904 272.018C53.3493 264.483 54.648 260.719 57.1905 253.184C57.459 252.414 56.9451 251.811 56.1543 251.894ZM157.171 252.695C153.27 252.336 150.304 254.772 150.098 258.244C149.964 260.467 151.035 262.413 153.145 263.95C153.974 264.529 156.229 266.204 157.061 266.783C157.894 267.395 158.311 267.94 158.272 268.65C158.221 269.567 157.324 270.114 156.047 269.997C154.919 269.896 153.812 269.346 152.485 268.152C151.748 267.486 151.099 267.429 150.43 268.113C150.212 268.316 149.596 268.943 149.381 269.149C148.68 269.859 148.66 270.576 149.394 271.331C150.883 272.868 153.031 274.077 155.833 274.331C159.889 274.701 163.03 272.571 163.221 268.747C163.328 266.639 162.263 264.667 160.117 263.097C159.282 262.518 157.027 260.846 156.2 260.264C155.287 259.613 154.961 259.137 155.003 258.37C155.047 257.537 155.763 256.916 156.939 257.024C157.676 257.092 158.486 257.467 159.339 258.139C160.106 258.745 160.784 258.776 161.411 258.029C161.596 257.826 162.14 257.187 162.325 256.984C162.918 256.322 162.958 255.525 162.364 254.964C160.955 253.642 159.048 252.871 157.171 252.695ZM88.1563 254.457C89.4962 254.424 90.4814 255.356 90.4993 256.783C90.5172 258.15 89.5459 259.129 88.2 259.162C86.8989 259.195 86.2532 259.215 84.9521 259.245C84.9431 257.364 84.9392 256.419 84.9303 254.536C86.2224 254.506 86.867 254.49 88.1563 254.457ZM634.135 291.696L603.288 291.748L603.291 295.705C610.563 297.729 614.776 301.549 614.8 316.471L614.853 347.205C614.892 368.761 603.564 378.728 582.147 378.767C560.855 378.802 549.366 368.877 549.327 347.328L549.257 308.552C549.239 298.859 552.041 297.197 560.072 296.033L560.069 291.826L521.308 291.892L521.311 296.103C529.347 297.237 531.902 298.89 531.92 308.582L531.986 346.842C532.03 371.585 544.935 388.779 577.446 388.723C609.955 388.666 622.805 371.428 622.76 347.194L622.703 316.454C622.677 301.532 626.88 297.695 634.143 295.644L634.135 291.696ZM1008.08 295.88C1002.47 295.892 998.268 300.233 998.277 305.588C998.286 310.561 1001.99 314.508 1007.09 314.5C1012.45 314.491 1016.77 310.15 1016.76 304.67C1016.75 299.819 1013.05 295.871 1008.08 295.88ZM736.27 296.361C730.66 296.373 726.46 300.714 726.469 306.069C726.478 311.042 730.182 314.991 735.282 314.985C740.639 314.976 744.968 310.63 744.956 305.146C744.947 300.298 741.242 296.352 736.27 296.361ZM1055.04 314.289L1052.74 314.294L1029.82 329.384L1029.83 333.464L1039.13 333.451L1039.21 375.152C1039.23 383.442 1043.95 387.896 1053.26 387.881C1060.52 387.869 1067.66 385.435 1073.77 380.832L1071.85 376.753C1068.41 378.29 1065.35 379.063 1062.67 379.066C1056.68 379.078 1055.15 376.021 1055.14 371.812L1055.07 333.421L1071.26 333.394L1071.25 326.123L1055.06 326.153L1055.04 314.289ZM1016.17 324.054L1009.92 324.067L991.202 336.341L991.211 339.144L1000.26 339.126L1000.32 372.926C1000.33 379.941 999.061 381.6 991.285 382.765L991.288 386.717L1025.33 386.656L1025.32 382.703C1017.42 381.569 1016.27 379.915 1016.25 372.9L1016.17 324.054ZM908.312 324.242L902.703 324.255L884.239 336.402L884.242 339.209L893.041 339.192L893.098 373.114C893.11 380.132 891.967 381.915 884.701 382.948L884.71 386.901L918.496 386.844L918.493 382.895C910.203 381.633 909.053 379.846 909.038 371.942L908.99 345.667C911.533 341.073 913.947 337.751 916.495 335.452C916.504 340.425 919.949 343.607 924.285 343.598C928.618 343.592 932.821 340.14 932.809 333.511C932.8 327.896 929.602 324.456 923.992 324.468C917.749 324.477 912.912 329.717 908.334 337.123L908.312 324.242ZM744.363 324.535L738.116 324.543L719.394 336.822L719.403 339.625L728.452 339.612L728.513 373.409C728.525 380.424 727.254 382.083 719.477 383.247L719.486 387.2L753.52 387.139L753.517 383.186C745.612 382.052 744.459 380.397 744.447 373.382L744.363 324.535ZM662.135 324.679L656.269 324.692L637.809 336.839V339.642L646.608 339.625L646.665 373.553C646.677 380.565 645.534 382.356 638.267 383.391L638.279 387.344L671.042 387.283L671.033 383.33C663.764 382.321 662.617 380.542 662.606 373.527L662.549 344.064C668.914 338.311 674.137 335.502 678.727 335.493C684.973 335.481 686.766 338.667 686.775 344.405L686.827 373.483C686.839 380.498 685.696 382.284 678.43 383.317L678.433 387.27L711.199 387.213L711.19 383.26C703.92 382.251 702.772 380.467 702.757 373.452L702.705 342.975C702.687 332.772 698.341 325.508 685.465 325.532C677.56 325.547 669.789 330.406 662.153 336.923L662.135 324.679ZM959.69 325.046C946.178 325.067 937.396 332.865 937.414 344.596C937.435 356.459 947.261 359.886 956.446 362.931C965.506 365.976 971.753 367.749 971.768 374.51C971.774 378.716 968.59 381.91 962.47 381.922C953.929 381.936 947.42 376.337 939.626 366.403L936.181 367.684L941.19 387.571L943.359 387.567L947.052 384.882C951.263 386.915 955.978 388.056 961.207 388.047C974.212 388.024 984.907 380.35 984.886 367.977C984.862 356.12 975.043 352.436 965.858 349.52C956.801 346.601 950.548 344.705 950.536 338.072C950.53 334.502 953.201 331.18 958.426 331.168C964.932 331.159 970.676 335.102 977.573 342.869L980.886 341.334L976.012 325.527L973.971 325.531L971.68 327.447C968.108 325.924 964.026 325.037 959.69 325.046ZM854.517 325.23C836.797 325.263 823.819 339.571 823.849 357.299C823.881 374.899 835.124 388.269 854.884 388.236C866.996 388.215 874.252 382.843 878.576 375.437L875.123 372.765C871.691 376.724 866.47 379.416 860.474 379.425C848.75 379.446 842.104 370.529 839.663 358.926L877.887 346.105C877.099 332.589 867.139 325.209 854.517 325.23ZM1143.03 325.995L1117.91 326.039L1117.92 329.611C1126.21 331.385 1127.11 335.592 1123.3 344.527L1113.65 367.623L1101.62 340.482C1099.06 334.491 1099.43 331.045 1108.23 330.009L1108.22 326.061L1074.69 326.117L1074.7 330.07C1078.66 331.082 1080.18 332.74 1083.64 339.874L1105.01 385.752L1101.45 393.408C1099.42 397.877 1097.52 401.195 1095.35 403.111C1093.82 397.884 1090.88 395.089 1086.29 395.092C1081.7 395.101 1077.75 398.171 1077.76 404.165C1077.77 410.156 1082.63 414.615 1088.36 414.603C1096.52 414.588 1101.62 410.501 1107.84 396.841L1131.84 343.611C1136.54 333.145 1138.06 330.849 1143.03 329.566L1143.03 325.995ZM822.888 326.559L797.775 326.603L797.778 330.175C806.071 331.949 806.971 336.156 803.163 345.091L793.516 368.192L781.477 341.046C778.917 335.055 779.297 331.614 788.091 330.578L788.082 326.625L754.555 326.682L754.564 330.639C758.518 331.654 760.176 333.305 763.503 340.443L785.39 387.72L792.022 387.712L811.701 344.186C816.404 333.718 817.925 331.416 822.896 330.133L822.888 326.559ZM851.332 331.868C857.198 331.859 860.901 336.061 862.443 344.347L838.747 352.55C838.615 351.15 838.611 349.747 838.611 348.344C838.59 338.012 842.916 331.885 851.332 331.868Z" fill="#12022F"/>
</svg>
