<svg width="1007" height="452" viewBox="0 0 1007 452" fill="none" xmlns="http://www.w3.org/2000/svg">
<path d="M987.305 130.304H920.901V426.947C920.901 432.231 925.145 436.515 930.387 436.515H987.305C992.545 436.515 996.792 432.235 996.792 426.947V139.873C996.792 134.589 992.549 130.304 987.305 130.304ZM731.173 359.963C689.26 359.963 655.283 325.689 655.283 283.41C655.283 241.131 689.26 206.857 731.173 206.857C773.087 206.857 807.065 241.131 807.065 283.41C807.065 325.689 773.087 359.963 731.173 359.963ZM731.173 130.304C708.892 130.304 687.741 135.149 668.68 143.849C667.453 144.389 666.116 144.696 664.766 144.696C659.526 144.696 655.279 140.414 655.279 135.126V25.0413C655.279 19.7572 651.035 15.4718 645.793 15.4718H579.389V283.406C579.389 367.964 647.341 436.513 731.17 436.513C814.999 436.513 882.952 367.964 882.952 283.406C882.952 198.849 815.002 130.304 731.173 130.304ZM232.995 407.468L204.44 357.535C202.025 353.316 196.832 351.614 192.403 353.565C183.092 357.677 172.805 359.96 161.989 359.96C120.076 359.96 86.0981 325.686 86.0981 283.408V216.423C86.0981 211.139 90.3419 206.855 95.5842 206.855H190.447C195.686 206.855 199.934 202.573 199.934 197.286V139.873C199.934 134.589 195.69 130.301 190.447 130.301H95.5842C90.345 130.301 86.0981 126.021 86.0981 120.733V25.039C86.0981 19.7549 81.8473 15.473 76.6119 15.473H10.2076V283.408C10.2076 367.965 78.1625 436.513 161.989 436.513C186.032 436.513 208.768 430.874 228.972 420.837C233.671 418.499 235.609 412.765 233.286 408.023C233.209 407.869 233.15 407.622 232.995 407.468ZM531.939 130.317H465.535V283.422C465.535 325.701 431.556 359.976 389.643 359.976C347.73 359.976 313.753 325.701 313.753 283.422V139.885C313.753 134.601 309.509 130.317 304.267 130.317H237.862V283.422C237.862 367.979 305.817 436.528 389.643 436.528C473.469 436.528 541.425 367.979 541.425 283.422V139.885C541.425 134.601 537.182 130.317 531.939 130.317ZM958.825 15.4871C937.866 15.4871 920.88 32.6226 920.88 53.7628C920.88 74.9038 937.866 92.0397 958.825 92.0397C979.782 92.0397 996.77 74.9038 996.77 53.7628C996.77 32.6226 979.782 15.4871 958.825 15.4871Z" fill="#12022F"/>
</svg>
